<svg width="64" height="64" viewBox="0 0 64 64" fill="none" xmlns="http://www.w3.org/2000/svg">
<g clip-path="url(#clip0_612_442)">
<path d="M39.2401 23.116L32.8341 29.076L26.8901 17.086L29.9661 10.19C30.7661 8.79 32.0141 8.806 32.7941 10.19L39.2401 23.116Z" fill="#989591"/>
<path d="M26.89 17.0859L32.834 29.0759L8.89404 51.3459L26.89 17.0859Z" fill="#262626"/>
<path d="M46.246 14.006C47.39 12.906 48.574 13.282 48.876 14.84L55.108 51.05L34.452 63.45C33.732 63.85 31.812 64.022 31.812 64.022C31.812 64.022 30.064 63.814 29.398 63.422L8.89404 51.346L46.246 14.006Z" fill="#BCBCBC"/>
<path d="M26.89 17.086L8.896 51.346L16.91 1.27596C17.206 -0.28404 18.094 -0.43404 18.886 0.94196L26.89 17.086Z" fill="#989591"/>
</g>
<defs>
<clipPath id="clip0_612_442">
<rect width="64" height="64" fill="white"/>
</clipPath>
</defs>
</svg>
