<?xml version="1.0" standalone="no"?>
<!DOCTYPE svg PUBLIC "-//W3C//DTD SVG 20010904//EN"
 "http://www.w3.org/TR/2001/REC-SVG-20010904/DTD/svg10.dtd">
<svg version="1.0" xmlns="http://www.w3.org/2000/svg"
 width="256.000000pt" height="256.000000pt" viewBox="0 0 256.000000 256.000000"
 preserveAspectRatio="xMidYMid meet">

<g transform="translate(0.000000,256.000000) scale(0.100000,-0.100000)"
fill="#000000" stroke="none">
<path d="M1076 2354 c-442 -87 -787 -435 -871 -877 -19 -102 -19 -292 0 -394
84 -445 433 -794 878 -878 102 -19 292 -19 394 0 445 84 794 433 878 878 19
102 19 292 0 394 -84 445 -433 794 -878 878 -98 18 -306 18 -401 -1z m304
-154 c140 -18 130 -11 130 -95 l0 -74 -76 -36 c-112 -51 -229 -133 -313 -218
-76 -77 -160 -190 -161 -217 -1 -35 -78 101 -111 198 l-18 52 47 35 c26 19 75
47 109 62 l62 28 1 122 0 122 38 7 c123 23 192 27 292 14z m222 -301 c24 -12
63 -36 88 -54 l45 -33 103 60 c117 67 107 69 177 -22 70 -92 155 -261 155
-310 0 -9 -27 -31 -62 -52 l-63 -36 -45 32 c-183 130 -361 197 -562 212 -49 4
-88 10 -88 14 0 12 81 133 122 182 43 52 41 52 130 7z m-919 -5 l62 -35 0
-187 c0 -219 16 -296 90 -447 24 -49 42 -92 39 -95 -10 -9 -177 0 -229 13 -46
11 -50 14 -58 52 -5 22 -6 79 -3 127 l7 86 -101 58 c-69 41 -100 64 -100 77 0
30 59 162 102 229 40 62 116 158 124 158 3 0 33 -16 67 -36z m670 -448 c117
-50 144 -210 51 -298 -116 -108 -304 -26 -304 132 0 102 76 179 178 180 23 0
57 -6 75 -14z m547 -29 l65 -12 1 -128 1 -129 93 -53 c50 -29 96 -57 101 -62
29 -29 -109 -293 -195 -373 l-27 -24 -57 31 -57 32 -1 178 c-1 159 -4 189 -27
278 -15 55 -47 139 -71 188 l-43 87 76 0 c42 -1 105 -6 141 -13z m-1313 -364
c93 -63 253 -139 349 -164 43 -11 123 -23 177 -27 l97 -7 -37 -63 c-20 -35
-58 -86 -84 -115 l-46 -52 -53 25 c-30 14 -78 42 -108 63 -30 21 -60 36 -66
34 -6 -3 -53 -30 -105 -60 l-94 -55 -38 44 c-21 25 -51 64 -67 87 -64 92 -131
252 -113 270 12 12 104 66 113 66 4 1 38 -20 75 -46z m1083 -145 c27 -57 52
-117 56 -133 5 -27 1 -34 -39 -63 -25 -18 -74 -46 -109 -62 l-63 -30 -5 -122
-5 -123 -75 -13 c-84 -15 -281 -10 -342 8 l-38 11 0 77 1 77 67 30 c171 76
341 218 432 358 30 47 58 86 62 86 4 1 30 -45 58 -101z"/>
</g>
</svg>
