<svg width="64" height="64" viewBox="0 0 64 64" fill="none" xmlns="http://www.w3.org/2000/svg">
<path d="M51.733 20.4141V43.4871L32.14 54.9741L31.96 55.1381V63.8351L32.14 63.9991L59.726 48.0651V15.9351H59.463L51.685 20.2851V20.4651" fill="#1B1B1D"/>
<path d="M12.4799 43.65L32.1719 55.055V64L4.35693 48V16H4.63693L12.3989 20.513L12.4809 20.776V43.75" fill="#6D7174"/>
<path d="M12.4799 20.726L4.2749 16L32.0749 0L59.7249 15.934L51.7329 20.414L32.0399 9.206L12.4469 20.693" fill="#797B7C"/>
<path d="M31.795 41.0098L31.582 40.7968V32.1488L31.795 32.0338V31.8208L39.212 27.4888H39.442V36.4158L31.746 40.9778" fill="#1B1B1D"/>
<path d="M23.9669 36.7432V27.4702H24.1799L31.7299 31.8682V41.0252L23.9019 36.7422" fill="#6D7174"/>
<path d="M31.6638 22.925L23.9678 27.487L31.7948 32L39.4908 27.504L31.6628 22.876" fill="#797B7C"/>
<path d="M22.2101 46.6698L21.9971 46.4568V37.7918L22.2101 37.6768V37.4638L29.6271 33.1318H29.8571V42.0588L22.1611 46.6208" fill="#1B1B1D"/>
<path d="M14.3838 42.3882V33.1162H14.5968L22.1468 37.5142V46.6712L14.3848 42.3882" fill="#6D7174"/>
<path d="M22.0958 28.5702L14.3828 33.1162L22.2108 37.6782L29.9068 33.1822L22.0788 28.5542" fill="#797B7C"/>
<path d="M42.068 46.8842L41.855 46.6712V38.0062L42.068 37.8912V37.6782L49.485 33.3462H49.715V42.2732L42.019 46.8352" fill="#1B1B1D"/>
<path d="M34.24 42.6001V33.3301H34.486L42.036 37.7281V46.8851L34.207 42.6001" fill="#6D7174"/>
<path d="M41.9362 28.7178L34.2402 33.2798L42.0682 37.8418L49.7642 33.3458L41.9362 28.7178Z" fill="#797B7C"/>
<path d="M32.484 52.5302L32.271 52.3172V43.6502L32.484 43.5352V43.3222L39.901 38.9902H40.131V47.9172L32.435 52.4792" fill="#1B1B1D"/>
<path d="M24.6401 48.2462V38.9902H24.8531L32.4031 43.3882V52.5452L24.6411 48.2452" fill="#6D7174"/>
<path d="M32.3531 34.4302L24.6401 38.9902L32.4841 43.4862L40.1801 38.9902L32.3521 34.4282" fill="#797B7C"/>
<path d="M31.795 28.7179L31.582 28.5049V19.8729L31.795 19.7579V19.5449L39.212 15.2129H39.442V24.1399L31.795 28.7179Z" fill="#1B1B1D"/>
<path d="M23.9669 24.4678V15.1958H24.1799L31.7299 19.5938V28.7178L23.9019 24.4348" fill="#6D7174"/>
<path d="M31.6638 10.667L23.9678 15.229L31.7958 19.791L39.4918 15.295L31.6638 10.667Z" fill="#797B7C"/>
<path d="M22.2101 34.3799L21.9971 34.1669V25.4369L22.2101 25.3219V25.1089L29.6271 20.7769H29.8571V29.7039L22.1611 34.2659" fill="#1B1B1D"/>
<path d="M14.3838 30.1128V20.8398H14.5968L22.1468 25.2378V34.3948L14.3848 30.1118" fill="#6D7174"/>
<path d="M22.0958 16.2949L14.3828 20.8409L22.2108 25.4359L29.9068 20.9399L22.0788 16.3119" fill="#797B7C"/>
<path d="M42.068 34.5928L41.855 34.3798V25.7298L42.068 25.6148V25.4018L49.485 21.0698H49.715V29.9968L42.019 34.5588" fill="#1B1B1D"/>
<path d="M34.2402 30.3602V21.0552H34.4862L42.0022 25.4372V34.5942L34.2402 30.3602Z" fill="#6D7174"/>
<path d="M41.9362 16.5098L34.2402 21.0698L42.0682 25.6318L49.7642 21.1358L41.9362 16.5078" fill="#797B7C"/>
<path d="M32.484 40.2048L32.271 39.9918V31.3768L32.484 31.2618V31.0488L39.901 26.7168H40.131V35.6438L32.484 40.2048Z" fill="#1B1B1D"/>
<path d="M24.6401 35.9702V26.7002H24.8531L32.4031 31.0982V40.2062L24.6401 35.9702Z" fill="#6D7174"/>
<path d="M32.3531 22.1538L24.6401 26.6998L32.4681 31.2618L40.1641 26.7658L32.3541 22.1558" fill="#797B7C"/>
</svg>
